<?xml version="1.0" encoding="UTF-8" standalone="no"?>
<!DOCTYPE svg PUBLIC "-//W3C//DTD SVG 1.1//EN"
 "http://www.w3.org/Graphics/SVG/1.1/DTD/svg11.dtd">
<!-- Generated by graphviz version 15.0.0 (20260523.1842)
 -->
<!-- Title: bool_optimize Pages: 1 -->
<svg width="852pt" height="204pt"
 viewBox="0.00 0.00 852.00 204.00" xmlns="http://www.w3.org/2000/svg" xmlns:xlink="http://www.w3.org/1999/xlink">
<g id="graph0" class="graph" transform="scale(1 1) rotate(0) translate(4 199.5)">
<title>bool_optimize</title>
<polygon fill="white" stroke="none" points="-4,4 -4,-199.5 848.44,-199.5 848.44,4 -4,4"/>
<text xml:space="preserve" text-anchor="middle" x="422.22" y="-7.2" font-family="Times New Roman,serif" font-size="14.00">bool_optimize</text>
<!-- n8 -->
<g id="node1" class="node">
<title>n8</title>
<polygon fill="none" stroke="black" points="844.44,-35.04 844.44,-49.96 808.32,-60.5 757.22,-60.5 721.09,-49.96 721.09,-35.04 757.22,-24.5 808.32,-24.5 844.44,-35.04"/>
<text xml:space="preserve" text-anchor="middle" x="782.77" y="-37.45" font-family="Times New Roman,serif" font-size="14.00">y_redundant</text>
</g>
<!-- n9 -->
<g id="node2" class="node">
<title>n9</title>
<polygon fill="none" stroke="black" points="645.49,-35.04 645.49,-49.96 612.61,-60.5 566.1,-60.5 533.22,-49.96 533.22,-35.04 566.1,-24.5 612.61,-24.5 645.49,-35.04"/>
<text xml:space="preserve" text-anchor="middle" x="589.36" y="-37.45" font-family="Times New Roman,serif" font-size="14.00">y_minimal</text>
</g>
<!-- x0 -->
<g id="node7" class="node">
<title>x0</title>
<ellipse fill="black" stroke="black" cx="683.29" cy="-42.5" rx="1.8" ry="1.8"/>
</g>
<!-- n9&#45;&gt;x0 -->
<g id="edge11" class="edge">
<title>n9:e&#45;&gt;x0:w</title>
<path fill="none" stroke="black" d="M645.49,-42.5C656.87,-42.5 662.18,-42.5 670.05,-42.5"/>
<polygon fill="black" stroke="black" points="669.98,-46 679.98,-42.5 669.98,-39 669.98,-46"/>
</g>
<!-- n10 -->
<g id="node3" class="node">
<title>n10</title>
<polygon fill="none" stroke="black" points="54,-62.04 54,-76.96 38.18,-87.5 15.82,-87.5 0,-76.96 0,-62.04 15.82,-51.5 38.18,-51.5 54,-62.04"/>
<text xml:space="preserve" text-anchor="middle" x="27" y="-64.45" font-family="Times New Roman,serif" font-size="14.00">c</text>
</g>
<!-- x3 -->
<g id="node10" class="node">
<title>x3</title>
<ellipse fill="black" stroke="black" cx="169.86" cy="-90.5" rx="1.8" ry="1.8"/>
</g>
<!-- n10&#45;&gt;x3 -->
<g id="edge2" class="edge">
<title>n10:e&#45;&gt;x3:w</title>
<path fill="none" stroke="black" d="M54,-69.5C76.27,-69.5 126.28,-85.58 155.48,-89.6"/>
<polygon fill="black" stroke="black" points="154.82,-93.06 165.07,-90.38 155.39,-86.08 154.82,-93.06"/>
</g>
<!-- n11 -->
<g id="node4" class="node">
<title>n11</title>
<polygon fill="none" stroke="black" points="54,-116.04 54,-130.96 38.18,-141.5 15.82,-141.5 0,-130.96 0,-116.04 15.82,-105.5 38.18,-105.5 54,-116.04"/>
<text xml:space="preserve" text-anchor="middle" x="27" y="-118.45" font-family="Times New Roman,serif" font-size="14.00">b</text>
</g>
<!-- x2 -->
<g id="node9" class="node">
<title>x2</title>
<ellipse fill="black" stroke="black" cx="169.86" cy="-123.5" rx="1.8" ry="1.8"/>
</g>
<!-- n11&#45;&gt;x2 -->
<g id="edge3" class="edge">
<title>n11:e&#45;&gt;x2:w</title>
<path fill="none" stroke="black" d="M54,-123.5C100.03,-123.5 114.3,-123.5 155.24,-123.5"/>
<polygon fill="black" stroke="black" points="155.07,-127 165.07,-123.5 155.07,-120 155.07,-127"/>
</g>
<!-- n12 -->
<g id="node5" class="node">
<title>n12</title>
<polygon fill="none" stroke="black" points="54,-170.04 54,-184.96 38.18,-195.5 15.82,-195.5 0,-184.96 0,-170.04 15.82,-159.5 38.18,-159.5 54,-170.04"/>
<text xml:space="preserve" text-anchor="middle" x="27" y="-172.45" font-family="Times New Roman,serif" font-size="14.00">a</text>
</g>
<!-- x1 -->
<g id="node8" class="node">
<title>x1</title>
<ellipse fill="black" stroke="black" cx="169.86" cy="-162.5" rx="1.8" ry="1.8"/>
</g>
<!-- n12&#45;&gt;x1 -->
<g id="edge4" class="edge">
<title>n12:e&#45;&gt;x1:w</title>
<path fill="none" stroke="black" d="M54,-177.5C100.44,-177.5 113.99,-164.81 155.16,-162.77"/>
<polygon fill="black" stroke="black" points="155.16,-166.27 165.07,-162.54 154.99,-159.28 155.16,-166.27"/>
</g>
<!-- c17 -->
<g id="node6" class="node">
<title>c17</title>
<polygon fill="none" stroke="black" points="285.72,-62.5 285.72,-160.5 497.22,-160.5 497.22,-62.5 285.72,-62.5"/>
<text xml:space="preserve" text-anchor="middle" x="298.59" y="-143.2" font-family="Times New Roman,serif" font-size="14.00">A</text>
<polyline fill="none" stroke="black" points="285.72,-136 311.47,-136"/>
<text xml:space="preserve" text-anchor="middle" x="298.59" y="-118.7" font-family="Times New Roman,serif" font-size="14.00">B</text>
<polyline fill="none" stroke="black" points="285.72,-111.5 311.47,-111.5"/>
<text xml:space="preserve" text-anchor="middle" x="298.59" y="-94.2" font-family="Times New Roman,serif" font-size="14.00">C</text>
<polyline fill="none" stroke="black" points="285.72,-87 311.47,-87"/>
<text xml:space="preserve" text-anchor="middle" x="298.59" y="-69.7" font-family="Times New Roman,serif" font-size="14.00">X</text>
<polyline fill="none" stroke="black" points="311.47,-62.5 311.47,-160.5"/>
<text xml:space="preserve" text-anchor="middle" x="394.47" y="-114.7" font-family="Times New Roman,serif" font-size="14.00">$110</text>
<text xml:space="preserve" text-anchor="middle" x="394.47" y="-98.2" font-family="Times New Roman,serif" font-size="14.00">sky130_fd_sc_hd__maj3_1</text>
<polyline fill="none" stroke="black" points="477.47,-62.5 477.47,-160.5"/>
<text xml:space="preserve" text-anchor="middle" x="487.34" y="-106.7" font-family="Times New Roman,serif" font-size="14.00"> </text>
</g>
<!-- x0&#45;&gt;n8 -->
<g id="edge9" class="edge">
<title>x0:e&#45;&gt;n8:w</title>
<path fill="none" stroke="black" d="M685.09,-42.5C696.47,-42.5 701.78,-42.5 709.65,-42.5"/>
<polygon fill="black" stroke="black" points="709.58,-46 719.58,-42.5 709.58,-39 709.58,-46"/>
</g>
<!-- x1&#45;&gt;c17 -->
<g id="edge1" class="edge">
<title>x1:e&#45;&gt;c17:w</title>
<path fill="none" stroke="black" d="M173.14,-162.5C219.53,-162.5 233.16,-150.44 274.31,-148.51"/>
<polygon fill="black" stroke="black" points="274.29,-152.01 284.21,-148.28 274.13,-145.01 274.29,-152.01"/>
</g>
<!-- x2&#45;&gt;c17 -->
<g id="edge5" class="edge">
<title>x2:e&#45;&gt;c17:w</title>
<path fill="none" stroke="black" d="M173.14,-123.5C219.17,-123.5 233.44,-123.71 274.38,-123.75"/>
<polygon fill="black" stroke="black" points="274.2,-127.25 284.21,-123.75 274.21,-120.25 274.2,-127.25"/>
</g>
<!-- x3&#45;&gt;c17 -->
<g id="edge6" class="edge">
<title>x3:e&#45;&gt;c17:w</title>
<path fill="none" stroke="black" d="M173.14,-90.5C219.31,-90.5 233.33,-97.9 274.35,-99.09"/>
<polygon fill="black" stroke="black" points="274.16,-102.59 284.21,-99.23 274.26,-95.59 274.16,-102.59"/>
</g>
<!-- x4 -->
<g id="node11" class="node">
<title>x4</title>
<ellipse fill="black" stroke="black" cx="391.47" cy="-42.5" rx="1.8" ry="1.8"/>
</g>
<!-- x4&#45;&gt;n9 -->
<g id="edge10" class="edge">
<title>x4:e&#45;&gt;n9:w</title>
<path fill="none" stroke="black" d="M394.75,-42.5C452.32,-42.5 469.5,-42.5 521.87,-42.5"/>
<polygon fill="black" stroke="black" points="521.71,-46 531.71,-42.5 521.71,-39 521.71,-46"/>
</g>
<!-- n4 -->
<g id="node12" class="node">
<title>n4</title>
<polygon fill="none" stroke="black" points="169.86,-65.5 90,-47.5 169.86,-29.5 249.72,-47.5 169.86,-65.5"/>
<text xml:space="preserve" text-anchor="middle" x="169.86" y="-42.45" font-family="Times New Roman,serif" font-size="14.00">$y_minimal</text>
</g>
<!-- n4&#45;&gt;c17 -->
<g id="edge7" class="edge">
<title>n4:e&#45;&gt;c17:w</title>
<path fill="none" stroke="black" d="M249.72,-47.5C265.08,-47.5 266.26,-63.47 274.98,-70.96"/>
<polygon fill="black" stroke="black" points="273.7,-74.22 284.29,-74.25 276.03,-67.62 273.7,-74.22"/>
</g>
<!-- n4&#45;&gt;x4 -->
<g id="edge8" class="edge">
<title>n4:e&#45;&gt;x4:w</title>
<path fill="none" stroke="black" d="M249.72,-47.5C307.33,-47.5 324.44,-43.12 376.84,-42.56"/>
<polygon fill="black" stroke="black" points="376.7,-46.06 386.68,-42.51 376.66,-39.06 376.7,-46.06"/>
</g>
</g>
</svg>
